<svg width="930" height="162" viewBox="0 0 930 162" fill="none" xmlns="http://www.w3.org/2000/svg">
<g clip-path="url(#clip0_27_8)">
<mask id="path-1-inside-1_27_8" fill="white">
<path d="M129.478 102.59H92.393C91.9762 102.59 91.1426 102.59 90.7258 102.999L62.8077 124.69C62.3909 125.099 62.3909 125.509 62.8077 125.918C62.8077 126.327 63.2245 126.327 63.6413 126.327H129.895C136.562 126.327 142.396 120.597 141.979 113.64C141.563 107.092 135.729 102.59 129.478 102.59"/>
</mask>
<path d="M90.7258 102.999L91.3393 103.789L91.3849 103.754L91.4262 103.713L90.7258 102.999ZM62.8077 124.69L62.1942 123.9L62.1484 123.936L62.107 123.976L62.8077 124.69ZM62.8077 125.918H63.8077V125.498L63.5084 125.204L62.8077 125.918ZM141.979 113.64L142.978 113.58L142.977 113.577L141.979 113.64ZM129.478 101.59H92.393V103.59H129.478V101.59ZM92.393 101.59C92.1903 101.59 91.8013 101.589 91.398 101.655C91.0188 101.717 90.4561 101.863 90.0255 102.286L91.4262 103.713C91.4123 103.727 91.4748 103.669 91.7208 103.628C91.9427 103.592 92.1789 103.59 92.393 103.59V101.59ZM90.1123 102.21L62.1942 123.9L63.4212 125.48L91.3393 103.789L90.1123 102.21ZM62.107 123.976C61.7898 124.288 61.4951 124.734 61.4951 125.304C61.4951 125.874 61.7898 126.32 62.107 126.631L63.5084 125.204C63.4614 125.158 63.4563 125.141 63.4644 125.157C63.475 125.178 63.4951 125.23 63.4951 125.304C63.4951 125.378 63.475 125.43 63.4644 125.451C63.4563 125.467 63.4614 125.45 63.5084 125.403L62.107 123.976ZM61.8077 125.918C61.8077 126.197 61.8825 126.507 62.0954 126.775C62.3001 127.034 62.5591 127.162 62.7571 127.226C63.0981 127.338 63.4888 127.327 63.6413 127.327V125.327C63.5301 125.327 63.4597 125.327 63.4006 125.323C63.3389 125.319 63.3426 125.314 63.3793 125.326C63.421 125.339 63.5497 125.39 63.6633 125.534C63.785 125.687 63.8077 125.843 63.8077 125.918H61.8077ZM63.6413 127.327H129.895V125.327H63.6413V127.327ZM129.895 127.327C137.106 127.327 143.43 121.143 142.978 113.58L140.981 113.7C141.361 120.051 136.018 125.327 129.895 125.327V127.327ZM142.977 113.577C142.521 106.413 136.162 101.59 129.478 101.59V103.59C135.295 103.59 140.604 107.771 140.981 113.704L142.977 113.577Z" fill="white" mask="url(#path-1-inside-1_27_8)"/>
<path d="M99.2225 79.7416C98.8057 76.4676 97.139 73.1936 94.6391 71.1472L51.7197 37.5883C46.3027 33.4956 38.8025 34.3143 34.6353 39.6347C30.4682 44.9551 31.3018 52.3214 36.7189 56.4141L67.9705 80.9693L36.7189 105.524C31.3018 109.617 30.4682 116.984 34.6353 122.304C38.8025 127.624 46.3027 128.443 51.7197 124.351L94.6391 89.973C97.5558 87.5173 99.2225 84.2433 99.2225 80.5599V79.7416Z" fill="white"/>
<path d="M141.979 114.458C141.979 121.006 136.562 126.327 129.895 126.327C123.228 126.327 117.811 121.006 117.811 114.458C117.811 107.91 123.228 102.59 129.895 102.59C136.562 102.59 141.979 107.91 141.979 114.458Z" fill="white"/>
</g>
<path d="M287.9 52.3H285.2C283.2 52.3 281.633 53 280.5 54.4C279.433 55.8 278.9 57.5667 278.9 59.7C278.9 62.9 280.067 65.6667 282.4 68L300.9 87L314 72.8C316 70.7333 317 68.1333 317 65C317 61.8667 315.333 58.9667 312 56.3C308.667 53.6333 304.433 52.3 299.3 52.3H294.4V48H346.1V52.3H341.2L284.3 115.3H280.7L244.1 74.7L207.4 115.3H203.8L147.3 52.3H140.6V48H211V52.3H208.2C206.2 52.3 204.633 53 203.5 54.4C202.433 55.8 201.9 57.5667 201.9 59.7C201.9 62.9 203.067 65.6667 205.4 68L224.1 87L239.8 69.7L224.2 52.3H217.5V48H287.9V52.3ZM282.5 110.9L286.8 106.1L238.6 52.3H229.8L282.5 110.9ZM205.6 110.9L209.9 106.1L161.7 52.3H153L205.6 110.9ZM397.432 93.1H387.332C387.999 99.0333 389.599 103.4 392.132 106.2C394.732 109 398.399 110.4 403.132 110.4C407.865 110.4 412.332 109.9 416.532 108.9C420.799 107.9 424.165 106.8 426.632 105.6C429.099 104.333 431.299 103.2 433.232 102.2C435.165 101.2 436.365 100.7 436.832 100.7C438.365 100.7 439.132 101.367 439.132 102.7C439.132 103.767 437.899 105.067 435.432 106.6C433.032 108.067 430.132 109.433 426.732 110.7C418.932 113.7 410.999 115.2 402.932 115.2C394.865 115.2 387.765 114.6 381.632 113.4C375.565 112.267 370.099 110.533 365.232 108.2C360.432 105.867 356.665 102.733 353.932 98.8C351.199 94.8667 349.832 90.3333 349.832 85.2C349.832 80.0667 351.232 75.5 354.032 71.5C356.832 67.5 360.565 64.3333 365.232 62C374.565 57.4 384.999 55.1 396.532 55.1C411.932 55.1 422.765 57.1 429.032 61.1C434.432 64.5667 437.132 68.9 437.132 74.1C437.132 79.1667 434.499 83.4667 429.232 87C423.165 91.0667 412.565 93.1 397.432 93.1ZM398.632 59.4C394.432 59.4 391.432 61.5 389.632 65.7C387.832 69.9 386.932 76.3667 386.932 85.1V87.1H397.432C401.232 87.1 404.232 85.7 406.432 82.9C408.699 80.0333 409.832 76.7333 409.832 73C409.832 69.2 408.832 66 406.832 63.4C404.832 60.7333 402.099 59.4 398.632 59.4ZM386.232 110C379.165 107.933 373.499 104.733 369.232 100.4C365.032 96.0667 362.932 91 362.932 85.2C362.932 79.3333 365.032 74.2667 369.232 70C373.499 65.7333 379.199 62.5667 386.332 60.5L386.132 59.6C377.065 61.6 369.799 64.8667 364.332 69.4C358.865 73.8667 356.132 79.1333 356.132 85.2C356.132 91.2667 358.865 96.5667 364.332 101.1C369.799 105.567 377.032 108.867 386.032 111L386.232 110ZM413.632 65C415.299 67.4 416.132 70 416.132 72.8C416.132 75.6 415.299 78.2667 413.632 80.8C412.032 83.3333 409.765 85.3667 406.832 86.9L407.132 87.8C411.599 86.4667 415.065 84.4333 417.532 81.7C419.999 78.9 421.232 75.9667 421.232 72.9C421.232 69.7667 419.932 66.9 417.332 64.3C414.799 61.7 411.232 59.7667 406.632 58.5L406.432 59.3C409.565 60.7 411.965 62.6 413.632 65ZM492.472 41V63.3C498.739 57.7667 507.372 55 518.372 55C529.372 55 538.172 57.9333 544.772 63.8C551.439 69.6 554.772 76.4333 554.772 84.3C554.772 92.3667 551.172 99.4 543.972 105.4C540.439 108.4 535.739 110.8 529.872 112.6C524.072 114.333 517.205 115.2 509.272 115.2C501.339 115.2 493.839 114.4 486.772 112.8C479.772 111.2 472.505 108.967 464.972 106.1L461.672 115.2H458.772V54.2C458.772 51.8 457.872 49.7333 456.072 48C454.339 46.2 452.239 45.3 449.772 45.3H443.172V41H492.472ZM505.072 63.4C502.472 63.4 500.005 64.1 497.672 65.5C495.339 66.9 493.605 68.3333 492.472 69.8V88.6C492.472 95.8667 493.539 101.4 495.672 105.2C497.872 109 501.005 110.9 505.072 110.9C509.139 110.9 512.272 109 514.472 105.2C516.672 101.4 517.772 95.6667 517.772 88C517.772 80.3333 516.805 74.3333 514.872 70C513.005 65.6 509.739 63.4 505.072 63.4ZM470.072 45.3H464.972V100L470.072 101.7V45.3ZM515.772 63L515.372 63.6C521.172 67.8 524.072 76.1333 524.072 88.6C524.072 93.5333 523.305 97.9333 521.772 101.8C520.239 105.667 518.072 108.6 515.272 110.6L515.672 111C520.472 108.933 524.205 105.833 526.872 101.7C529.605 97.5667 530.972 93.0667 530.972 88.2C530.972 83.2667 529.839 78.4 527.572 73.6C525.372 68.8 521.439 65.2667 515.772 63ZM725.073 57.2V61.5H719.573L671.373 114.9H668.173L640.873 81.9L610.973 114.9H607.773L563.673 61.5H556.773V57.2H614.173V61.5H609.273C608.007 61.5 606.94 61.9 606.073 62.7C605.273 63.5 604.873 64.6 604.873 66C604.873 68.5333 606.373 71.3 609.373 74.3L624.973 90.1L637.073 77.3L624.073 61.5H619.173V57.2H674.573V61.5H669.673C668.407 61.5 667.34 61.9 666.473 62.7C665.673 63.5 665.273 64.6 665.273 66C665.273 68.5333 666.773 71.3 669.773 74.3L685.373 90.1L696.373 78.4C698.773 75.9333 699.973 73.3667 699.973 70.7C699.973 68.0333 698.707 65.8333 696.173 64.1C693.707 62.3667 690.34 61.5 686.073 61.5H679.573V57.2H725.073ZM670.073 109.9L673.073 106.7L635.873 61.5H630.173L670.073 109.9ZM609.673 109.9L612.673 106.7L575.473 61.5H569.773L609.673 109.9ZM790.382 108.7H796.982V113H732.082V108.7H738.682C744.682 108.7 747.682 105.733 747.682 99.8V70.4C747.682 68 746.782 65.9333 744.982 64.2C743.249 62.4 741.149 61.5 738.682 61.5H732.082V57.2H781.482L781.382 99.8C781.382 105.733 784.382 108.7 790.382 108.7ZM758.982 108.7V61.5H753.882V108.7H758.982ZM778.482 30.1C782.482 32.5667 784.482 35.5333 784.482 39C784.482 42.4667 782.482 45.4333 778.482 47.9C774.482 50.3 769.649 51.5 763.982 51.5C758.315 51.5 753.482 50.3 749.482 47.9C745.482 45.4333 743.482 42.4667 743.482 39C743.482 35.5333 745.482 32.5667 749.482 30.1C753.482 27.6333 758.315 26.4 763.982 26.4C769.649 26.4 774.482 27.6333 778.482 30.1ZM755.982 47.7C753.582 45.1667 752.382 42.2333 752.382 38.9C752.382 35.5667 753.582 32.7 755.982 30.3C753.449 31.1667 751.382 32.4 749.782 34C748.249 35.5333 747.482 37.2 747.482 39C747.482 40.8 748.249 42.5 749.782 44.1C751.382 45.6333 753.449 46.8333 755.982 47.7ZM891.108 61.5H889.108L847.908 108.7H853.308C862.508 108.7 869.941 106.933 875.608 103.4C878.474 101.6 880.708 100.033 882.308 98.7C883.974 97.3 885.874 95.5 888.008 93.3H890.808V113H805.008V108.7H807.208L848.308 61.5H844.108C828.041 61.5 817.608 66.6333 812.808 76.9H810.008V57.2H891.108V61.5ZM815.408 108.7H822.508L863.408 61.5H856.308L815.408 108.7Z" fill="white"/>
<defs>
<clipPath id="clip0_27_8">
<rect width="110" height="92" fill="white" transform="translate(32 35)"/>
</clipPath>
</defs>
</svg>
